<svg xmlns="http://www.w3.org/2000/svg" width="72" height="60" viewBox="0 0 72 60">
    <g fill="none" fill-rule="evenodd">
        <rect width="72" height="48" fill="#EBEDF8" fill-rule="nonzero" rx="3"/>
        <path fill="#FFF" fill-rule="nonzero" d="M22.207 25.002h4.187v7.348h-3.111l1.956 4.495h2.788l2.397 4.04-2.397 4.207c-5.006 1.296-8.462 2.934-10.37 4.913-1.907 1.98-2.869 4.927-2.885 8.842H57.62c-.272-4.127-1.282-7.074-3.033-8.84-1.75-1.767-5.321-3.443-10.712-5.029l-2.543-3.98c.873-.63 1.721-1.677 2.543-3.138a20 20 0 0 0 1.908-4.774l3.437-.736.75-9.378c-.27-3.56-1.992-6.37-5.166-8.433-3.174-2.062-7.087-2.913-11.739-2.552-3.447 1.109-6.056 2.724-7.826 4.846-1.77 2.121-2.78 4.844-3.032 8.169z"/>
        <path fill="#323C47" d="M46.76 48.785a.973.973 0 0 0-.977.967c0 .534.438.967.978.967s.978-.433.978-.967a.973.973 0 0 0-.978-.967z"/>
        <path fill="#FA8132" fill-rule="nonzero" d="M22.207 25.002l.635 7.358 3.552.726V25.4zM49.97 25.002l-.636 7.358-3.551.726V25.4zM32.422 35.347h5.34v3.19h-5.34"/>
        <path fill="#323C47" fill-rule="nonzero" d="M49.17 45.659l-4.65-1.532-1.67-3.299c1.504-1.513 2.549-3.514 2.9-5.602l.209-1.233h1.78c1.618 0 2.935-1.301 2.935-2.9v-6.091C50.674 17.006 44.09 10.5 36 10.5c-8.112 0-14.674 6.487-14.674 14.502v6.09c0 1.261.818 2.336 1.957 2.735v1.133c0 1.6 1.316 2.9 2.934 2.9h.86a10.475 10.475 0 0 0 2.071 2.97l-1.668 3.297-4.65 1.532c-5.406 1.782-9.33 7.406-9.33 13.374 0 .534.438.967.978.967h43.044c.54 0 .978-.433.978-.967 0-5.968-3.924-11.592-9.33-13.374zm-.453-14.566a.974.974 0 0 1-.978.967h-1.493c.249-1.904.414-3.93.481-5.925l.005-.166h1.985v5.124zm-24.456.967a.974.974 0 0 1-.978-.967v-5.124h1.985l.01.304.001.01v.001c.069 1.94.232 3.914.475 5.775h-1.493zm1.956 3.867a.974.974 0 0 1-.978-.967v-.967h.802l.208 1.234c.04.234.089.468.145.7h-.177zm-.976-11.892H23.32c.495-6.48 5.967-11.601 12.68-11.601 6.683 0 12.179 5.12 12.68 11.601h-1.92c-.071-5.34-4.47-9.668-9.884-9.668h-1.751c-5.414 0-9.814 4.329-9.884 9.668zm9.883-7.734h1.752c4.383 0 7.93 3.543 7.928 7.87 0 .305-.002.57-.007.81v.01l-1.224-.173a15.789 15.789 0 0 1-8.838-4.367.984.984 0 0 0-.692-.283 8.892 8.892 0 0 0-6.804 3.182c.41-3.937 3.777-7.05 7.885-7.05zm-6.702 19.626c-.49-1.61-1.05-6.348-1.174-9.383l1.317-1.735a6.909 6.909 0 0 1 5.092-2.697 17.779 17.779 0 0 0 9.64 4.62l1.44.204a58.828 58.828 0 0 1-.575 5.909v.002c-.09.599-.16.984-.341 2.061-.518 3.071-2.837 5.848-5.898 6.605-1.26.31-2.587.31-3.846 0-1.91-.472-3.663-1.78-4.794-3.653h1.994a2.937 2.937 0 0 0 2.766 1.934H36c1.621 0 2.935-1.298 2.935-2.9 0-1.6-1.317-2.9-2.935-2.9h-1.957a2.934 2.934 0 0 0-2.768 1.933h-2.853zm5.54 7.542a10.01 10.01 0 0 0 3.638.081l-1.729 1.807-1.91-1.888zm.564 3.294l-3.103 3.242a36.61 36.61 0 0 1-2.19-5.019l1.165-2.303 4.128 4.08zm6.91-4.408l1.33 2.63a36.6 36.6 0 0 1-2.19 5.022l-3.32-3.282 4.18-4.37zm-8.37-5.461c0-.534.437-.967.977-.967H36c.54 0 .978.433.978.967a.973.973 0 0 1-.978.966h-1.957a.974.974 0 0 1-.978-.966zm-17.57 21.172c.387-4.789 3.613-9.142 7.953-10.573l4.118-1.356a38.543 38.543 0 0 0 2.784 5.969l.006.01c.8 1.391 1.701 2.75 2.678 4.041l1.203 1.91H15.496zM36 57.205L34.673 55.1a.98.98 0 0 0-.047-.07 36.835 36.835 0 0 1-2.204-3.254l3.488-3.646 3.676 3.633a36.794 36.794 0 0 1-2.212 3.268c-.047.063.02-.037-1.374 2.174zm1.762.861l1.203-1.909a38.71 38.71 0 0 0 2.697-4.073l.014-.026.002-.003a38.511 38.511 0 0 0 2.755-5.918l4.118 1.356c4.34 1.43 7.566 5.784 7.953 10.573H37.762z"/>
        <path fill="#323C47" d="M53.564 54.154a9.692 9.692 0 0 0-2.77-3.323.986.986 0 0 0-1.37.177.96.96 0 0 0 .178 1.356 7.742 7.742 0 0 1 2.212 2.654.984.984 0 0 0 1.312.433.962.962 0 0 0 .438-1.297z"/>
    </g>
</svg>
