<svg xmlns="http://www.w3.org/2000/svg" width="20" height="18" viewBox="0 0 20 18">
    <path fill="#F84B0F" fill-rule="nonzero" d="M19.34 11.512h-1.047v1.046a.628.628 0 0 1-1.256 0v-1.046h-1.046a.635.635 0 1 1 0-1.27h1.046V9.194a.635.635 0 0 1 1.27 0v1.046h1.047a.635.635 0 1 1 0 1.27h-.014zm-1.608 6.44H.75a.628.628 0 0 1-.628-.628c0-3.198 4.036-4.477 5.77-4.877a.046.046 0 0 0 .036-.048v-.678a5.287 5.287 0 0 1-.88-1.758c-.453-.448-.654-1.158-.763-1.54-.175-.629-.353-1.524.132-2.167l.021-.027a6.557 6.557 0 0 1-.069-.563c-.21-1.465-.05-2.545.505-3.228A1.84 1.84 0 0 1 6.07 1.76C6.352.785 7.732-.167 8.985.086c1.22.253 3.768-.034 3.782-.036a.128.128 0 0 1 .09.027.12.12 0 0 1 .044.084c.01.34-.12.668-.358.91 2.029 1.353 1.736 4.023 1.501 5.152l.021.027c.486.642.31 1.544.134 2.166-.109.383-.31 1.093-.762 1.54a5.264 5.264 0 0 1-.879 1.752v.689c0 .022.014.042.036.048 1.735.4 5.768 1.675 5.768 4.877a.628.628 0 0 1-.63.63zm-5.764-4.414a1.298 1.298 0 0 1-.597-.716 4.314 4.314 0 0 1-.906.458 3.67 3.67 0 0 1-2.447 0 4.224 4.224 0 0 1-.91-.454 1.3 1.3 0 0 1-.592.705 3.422 3.422 0 0 0 5.454 0l-.002.007zm.56-4.312c.066 0 .298-.1.585-1.111.224-.79.13-1.076.052-1.177a.289.289 0 0 0-.27-.094.121.121 0 0 1-.107-.046.12.12 0 0 1-.018-.113v-.023c.056-.188.29-1.149-.526-1.752-.716.16-1.884.21-3.468-.47-.77-.33-1.417-.342-1.921-.034-.995.617-1.137 2.313-1.139 2.33a.12.12 0 0 1-.126.11h-.054a.257.257 0 0 0-.222.097c-.075.1-.17.387.053 1.176.286 1.009.519 1.105.583 1.111a.12.12 0 0 1 .11.1c.163 1.047.962 2.412 2.33 2.893a2.512 2.512 0 0 0 1.69 0c1.317-.475 2.173-1.812 2.34-2.89a.12.12 0 0 1 .109-.107z"/>
</svg>
