<svg xmlns="http://www.w3.org/2000/svg" width="44" height="40" viewBox="0 0 44 40">
    <g fill="none" fill-rule="evenodd">
        <rect width="44" height="30" y="10" fill="#EBEDF8" rx="3"/>
        <g fill-rule="nonzero">
            <path fill="#F84B0F" d="M9.5 19.123h24.133V21.5c-1.7.274-2.744.648-3.133 1.123-.389.475-.82 1.496-1.294 3.063H14.794c-.753-1.495-1.404-2.516-1.95-3.063-.547-.547-1.626-.92-3.236-1.123"/>
            <path fill="#FFF" d="M10 5h24v14H10z"/>
            <path fill="#000" d="M37.176 8.749a.766.766 0 0 0-.537.22.745.745 0 0 0-.223.53v.5h-1.204V5.124c0-2-1.458-2.75-2.915-3.313l-2.408-.687a28.253 28.253 0 0 0-15.778 0l-2.471.687a.063.063 0 0 1-.064.063c-1.647.687-2.788 1.375-2.788 3.25v4.875H7.584v-.5a.745.745 0 0 0-.244-.554.767.767 0 0 0-.58-.196c-.42 0-.76.335-.76.75v4.5c0 .414.34.75.76.75a.767.767 0 0 0 .58-.197.745.745 0 0 0 .244-.553V11.56h1.204v12.375c-.042 1.538 1.016 2.895 2.535 3.25v1.312c-.018.392.128.774.404 1.057.275.284.655.444 1.053.443h3.612c.398 0 .778-.16 1.054-.443.275-.283.42-.665.404-1.057v-1.25h8.364v1.25a1.51 1.51 0 0 0 1.457 1.5h3.676a1.51 1.51 0 0 0 1.457-1.5v-1.375a3.194 3.194 0 0 0 2.408-3.187V11.56h1.204V14c0 .198.08.39.223.53.142.14.336.22.537.22a.767.767 0 0 0 .58-.197A.745.745 0 0 0 38 14v-4.5a.745.745 0 0 0-.245-.554.767.767 0 0 0-.579-.196zM10.31 5.124c0-.875.317-1.125 1.838-1.813l2.407-.687a26.262 26.262 0 0 1 14.892 0l2.407.687c1.521.563 1.775 1.063 1.775 1.813v.5h-23.32v-.5zm1.584 20.562a1.696 1.696 0 0 1-1.584-1.75v-1.313c2.281.188 3.422 1.25 3.485 3.063h-1.9zm4.436 2.75h-3.485v-1.188h3.485v1.188zm14.89 0h-3.421v-1.188h3.422v1.188zm2.409-4.5a1.61 1.61 0 0 1-.392 1.187 1.656 1.656 0 0 1-1.13.563h-1.9c0-1.813 1.204-2.875 3.422-3.063v1.313zm0-2.813c-4.373.313-5.006 3.188-5.006 4.563H15.378c-.063-1.375-.633-4.25-5.07-4.563v-2h23.32v2zm0-3.5h-23.32V7.186h23.32v10.437z"/>
        </g>
    </g>
</svg>
