<svg xmlns="http://www.w3.org/2000/svg" width="118" height="90" viewBox="0 0 118 90">
    <g fill="none" fill-rule="evenodd">
        <g transform="matrix(-1 0 0 1 125 7)">
            <g transform="translate(0 40)">
                <path fill="#F84B0F" d="M2.647 38.562l-1.345-.753s-.63 2.642-.424 4.524a.936.936 0 0 0 .7.81c3.095.774 17.842 4.068 27.984-.572a.936.936 0 0 0 .539-.753c.124-1.157-.316-3.544-.492-4.01-.378-1-26.962.754-26.962.754z"/>
                <ellipse cx="15.48" cy="37.917" fill="#FF8A00" rx="13.806" ry="2.917"/>
                <path fill="#F84B0F" d="M7.667 32.729l-1.345-.754s-.63 2.642-.424 4.525a.936.936 0 0 0 .7.81c3.095.773 17.843 4.068 27.984-.572a.936.936 0 0 0 .539-.753c.124-1.157-.316-3.545-.492-4.01-.378-1-26.962.754-26.962.754z"/>
                <ellipse cx="19.663" cy="32.083" fill="#FF8A00" rx="13.806" ry="2.917"/>
                <path fill="#F84B0F" d="M1.81 26.062L.465 25.31s-.63 2.642-.424 4.524a.936.936 0 0 0 .7.81c3.095.774 17.843 4.068 27.984-.572a.936.936 0 0 0 .539-.753c.124-1.157-.316-3.544-.492-4.01-.378-1-26.962.754-26.962.754z"/>
                <ellipse cx="15.48" cy="25.417" fill="#FF8A00" rx="13.806" ry="2.917"/>
                <path fill="#FA8132" d="M13.524 21.062l-1.345-.753s-.63 2.642-.423 4.524a.936.936 0 0 0 .7.81c3.094.774 17.842 4.068 27.983-.572a.936.936 0 0 0 .54-.753c.124-1.157-.317-3.544-.493-4.01-.378-1-26.962.754-26.962.754z"/>
                <ellipse cx="25.52" cy="20.417" fill="#FF9D44" rx="13.806" ry="2.917"/>
                <path fill="#F84B0F" d="M5.157 17.729l-1.345-.754s-.63 2.642-.424 4.525a.936.936 0 0 0 .7.81c3.095.773 17.843 4.068 27.984-.572a.936.936 0 0 0 .539-.753c.124-1.157-.316-3.545-.492-4.01-.378-1-26.962.754-26.962.754z"/>
                <ellipse cx="18.827" cy="17.917" fill="#FF8A00" rx="13.806" ry="2.917"/>
                <path fill="#F84B0F" d="M11.014 11.062l-1.345-.753s-.63 2.642-.424 4.524a.936.936 0 0 0 .7.81c3.095.774 17.843 4.068 27.984-.572a.936.936 0 0 0 .539-.753c.124-1.157-.316-3.544-.492-4.01-.378-1-26.962.754-26.962.754z"/>
                <ellipse cx="24.684" cy="10.417" fill="#FF8A00" rx="13.806" ry="2.917"/>
                <path fill="#F84B0F" d="M13.524 3.562L12.18 2.81s-.63 2.642-.423 4.524a.936.936 0 0 0 .7.81c3.094.774 17.842 4.068 27.983-.572a.936.936 0 0 0 .54-.753c.124-1.157-.317-3.544-.493-4.01-.378-1-26.962.754-26.962.754z"/>
                <ellipse cx="25.52" cy="2.917" fill="#FF8A00" rx="13.806" ry="2.917"/>
            </g>
            <g fill="#47E6B1" opacity=".5">
                <path d="M23.83 22.085h1v1.887h-1z"/>
                <path d="M24.94 22.862v.333h-1.887v-.333z"/>
            </g>
            <g fill="#47E6B1" opacity=".5">
                <path d="M34.83 2.085h1v1.887h-1z"/>
                <path d="M35.94 2.862v.333h-1.887v-.333z"/>
            </g>
            <g fill="#47E6B1" opacity=".5">
                <path d="M63.83 26.085h1v1.887h-1z"/>
                <path d="M64.94 26.862v.333h-1.887v-.333z"/>
            </g>
            <g fill="#47E6B1" opacity=".5">
                <path d="M81.798 37.034h1v1.887h-1z"/>
                <path d="M82.908 37.811v.333h-1.887v-.333z"/>
            </g>
            <g fill="#47E6B1" opacity=".5">
                <path d="M83.798 24.034h1v1.887h-1z"/>
                <path d="M84.908 24.811v.333h-1.887v-.333z"/>
            </g>
            <g fill="#47E6B1" opacity=".5">
                <path d="M95.798 3.034h1v1.887h-1z"/>
                <path d="M96.908 3.811v.333h-1.887v-.333z"/>
            </g>
            <g fill="#47E6B1" opacity=".5">
                <path d="M123.798 26.034h1v1.887h-1z"/>
                <path d="M124.908 26.811v.333h-1.887v-.333z"/>
            </g>
            <g fill="#47E6B1" opacity=".5">
                <path d="M36.808 22.027h1v1.887h-1z"/>
                <path d="M37.917 22.804v.333H36.03v-.333z"/>
            </g>
            <g fill="#47E6B1" opacity=".5">
                <path d="M47.808 2.027h1v1.887h-1z"/>
                <path d="M48.917 2.804v.333H47.03v-.333z"/>
            </g>
            <g fill="#47E6B1" opacity=".5">
                <path d="M76.808 26.027h1v1.887h-1z"/>
                <path d="M77.917 26.804v.333H76.03v-.333z"/>
            </g>
            <path fill="#4D8AF0" d="M19.823 46.017a.54.54 0 0 1-.3-.653c.006-.02.01-.04.011-.06a.265.265 0 0 0-.486-.18.265.265 0 0 0-.03.053.54.54 0 0 1-.654.3.265.265 0 0 0-.06-.011.265.265 0 0 0-.18.486.265.265 0 0 0 .053.03.54.54 0 0 1 .3.654.265.265 0 0 0-.011.06.265.265 0 0 0 .486.18.265.265 0 0 0 .03-.053.54.54 0 0 1 .654-.3c.02.006.04.01.06.011a.265.265 0 0 0 .18-.486.265.265 0 0 0-.053-.03zM25.823 76.017a.54.54 0 0 1-.3-.653c.006-.02.01-.04.011-.06a.265.265 0 0 0-.486-.18.265.265 0 0 0-.03.053.54.54 0 0 1-.654.3.265.265 0 0 0-.06-.011.265.265 0 0 0-.18.486.265.265 0 0 0 .053.03.54.54 0 0 1 .3.654.265.265 0 0 0-.011.06.265.265 0 0 0 .486.18.265.265 0 0 0 .03-.053.54.54 0 0 1 .654-.3c.02.006.04.01.06.011a.265.265 0 0 0 .18-.486.265.265 0 0 0-.053-.03zM70.823 36.017a.54.54 0 0 1-.3-.653c.006-.02.01-.04.011-.06a.265.265 0 0 0-.486-.18.265.265 0 0 0-.03.053.54.54 0 0 1-.654.3.265.265 0 0 0-.06-.011.265.265 0 0 0-.18.486.265.265 0 0 0 .053.03.54.54 0 0 1 .3.654.265.265 0 0 0-.011.06.265.265 0 0 0 .486.18.265.265 0 0 0 .03-.053.54.54 0 0 1 .654-.3c.02.006.04.01.06.011a.265.265 0 0 0 .18-.486.265.265 0 0 0-.053-.03zM81.823 17.017a.54.54 0 0 1-.3-.653c.006-.02.01-.04.011-.06a.265.265 0 0 0-.486-.18.265.265 0 0 0-.03.053.54.54 0 0 1-.654.3.265.265 0 0 0-.06-.011.265.265 0 0 0-.18.486.265.265 0 0 0 .053.03.54.54 0 0 1 .3.654.265.265 0 0 0-.011.06.265.265 0 0 0 .486.18.265.265 0 0 0 .03-.053.54.54 0 0 1 .654-.3c.02.006.04.01.06.011a.265.265 0 0 0 .18-.486.265.265 0 0 0-.053-.03zM109.823 39.017a.54.54 0 0 1-.3-.653c.006-.02.01-.04.011-.06a.265.265 0 0 0-.486-.18.265.265 0 0 0-.03.053.54.54 0 0 1-.654.3.265.265 0 0 0-.06-.011.265.265 0 0 0-.18.486.265.265 0 0 0 .053.03.54.54 0 0 1 .3.654.265.265 0 0 0-.011.06.265.265 0 0 0 .486.18.265.265 0 0 0 .03-.053.54.54 0 0 1 .654-.3c.02.006.04.01.06.011a.265.265 0 0 0 .18-.486.265.265 0 0 0-.053-.03zM70.823 43.017a.54.54 0 0 1-.3-.653c.006-.02.01-.04.011-.06a.265.265 0 0 0-.486-.18.265.265 0 0 0-.03.053.54.54 0 0 1-.654.3.265.265 0 0 0-.06-.011.265.265 0 0 0-.18.486.265.265 0 0 0 .053.03.54.54 0 0 1 .3.654.265.265 0 0 0-.011.06.265.265 0 0 0 .486.18.265.265 0 0 0 .03-.053.54.54 0 0 1 .654-.3c.02.006.04.01.06.011a.265.265 0 0 0 .18-.486.265.265 0 0 0-.053-.03zM70.827 20.017a.54.54 0 0 1-.302-.654c.006-.019.01-.039.012-.06a.266.266 0 0 0-.488-.18.265.265 0 0 0-.03.054.543.543 0 0 1-.654.302.267.267 0 0 0-.06-.012.265.265 0 1 0-.18.486.266.266 0 0 0 .052.03.54.54 0 0 1 .302.654.264.264 0 0 0-.012.06.266.266 0 0 0 .488.18.265.265 0 0 0 .03-.054.543.543 0 0 1 .65-.308c.02.006.04.01.06.012a.265.265 0 1 0 .132-.51zM81.827 1.017a.54.54 0 0 1-.302-.654c.006-.019.01-.039.012-.06a.266.266 0 0 0-.488-.18.265.265 0 0 0-.03.054.543.543 0 0 1-.654.302.267.267 0 0 0-.06-.012.265.265 0 1 0-.18.486.266.266 0 0 0 .052.03.54.54 0 0 1 .302.654.264.264 0 0 0-.012.06.266.266 0 0 0 .488.18.265.265 0 0 0 .03-.054.543.543 0 0 1 .65-.308c.02.006.04.01.06.012a.265.265 0 1 0 .132-.51zM109.827 24.017a.54.54 0 0 1-.302-.654c.006-.019.01-.039.012-.06a.266.266 0 0 0-.488-.18.265.265 0 0 0-.03.054.543.543 0 0 1-.654.302.267.267 0 0 0-.06-.012.265.265 0 1 0-.18.486.266.266 0 0 0 .052.03.54.54 0 0 1 .302.654.264.264 0 0 0-.012.06.266.266 0 0 0 .488.18.265.265 0 0 0 .03-.054.543.543 0 0 1 .65-.308c.02.006.04.01.06.012a.265.265 0 1 0 .132-.51zM84.824 57.014a.538.538 0 0 1-.3-.652c.006-.019.01-.039.011-.059a.266.266 0 0 0-.487-.18.264.264 0 0 0-.03.053.542.542 0 0 1-.654.3.266.266 0 0 0-.06-.012.264.264 0 1 0-.18.485.266.266 0 0 0 .053.03c.254.11.384.395.3.659a.263.263 0 0 0-.012.059.266.266 0 0 0 .487.18.264.264 0 0 0 .03-.053c.11-.251.391-.38.654-.3.02.006.04.01.06.012a.264.264 0 1 0 .18-.485.265.265 0 0 0-.052-.037z" opacity=".5"/>
            <circle cx="20.5" cy="32.5" r="1" fill="#F55F44" opacity=".5"/>
            <circle cx="31.5" cy="14.5" r="1" fill="#F55F44" opacity=".5"/>
            <circle cx="60.5" cy="36.5" r="1" fill="#F55F44" opacity=".5"/>
            <circle cx="16.5" cy="71.5" r="1" fill="#F55F44" opacity=".5"/>
            <circle cx="50.5" cy="22.5" r="1" fill="#F55F44" opacity=".5"/>
            <circle cx="62.5" cy="3.5" r="1" fill="#F55F44" opacity=".5"/>
            <circle cx="91.5" cy="26.5" r="1" fill="#F55F44" opacity=".5"/>
            <circle cx="56.5" cy="33.5" r="1" fill="#F55F44" opacity=".5"/>
            <circle cx="67.5" cy="14.5" r="1" fill="#F55F44" opacity=".5"/>
            <circle cx="95.5" cy="36.5" r="1" fill="#F55F44" opacity=".5"/>
            <circle cx="15.5" cy="58.5" r="1" fill="#F55F44" opacity=".5"/>
            <circle cx="36.5" cy="32.5" r="1" fill="#47E6B1" opacity=".5"/>
            <circle cx="47.5" cy="12.5" r="1" fill="#47E6B1" opacity=".5"/>
            <circle cx="76.5" cy="36.5" r="1" fill="#47E6B1" opacity=".5"/>
            <path fill="#FF8A00" fill-rule="nonzero" d="M50.46 47.2l-.523.11c-.221.046-5.465 1.1-8.096-1.6-1.25-1.285-2.07-2.85-2.31-4.402-.258-1.661.163-3.123 1.191-4.114 1.03-.992 2.506-1.368 4.164-1.06 1.554.29 3.094 1.156 4.343 2.44 2.627 2.702 1.405 7.893 1.351 8.112l-.12.513zm-7.705-9.324c-.32.11-.611.288-.855.521-.623.602-.872 1.543-.7 2.651.188 1.214.847 2.453 1.856 3.49 1.567 1.612 4.726 1.386 5.992 1.211.21-1.256.541-4.395-1.027-6.008-1.008-1.036-2.23-1.732-3.442-1.956-.679-.129-1.3-.093-1.824.09z"/>
            <path fill="#FF8A00" fill-rule="nonzero" d="M49.686 47.222l-.119-.518c-.05-.221-1.182-5.432 1.492-8.087 1.27-1.264 2.828-2.103 4.385-2.364 1.662-.28 3.134.121 4.144 1.13 1.01 1.01 1.408 2.478 1.121 4.135-.268 1.548-1.116 3.097-2.387 4.363-2.671 2.651-7.896 1.51-8.117 1.46l-.52-.119zm7.864-9.19c-.52-.194-1.145-.239-1.823-.124-1.215.205-2.453.879-3.475 1.899-1.596 1.585-1.32 4.727-1.131 5.99 1.263.191 4.416.477 6.013-1.109 1.026-1.02 1.707-2.247 1.916-3.457.192-1.105-.04-2.05-.654-2.662a2.343 2.343 0 0 0-.846-.537z"/>
            <path fill="#E5450D" d="M27.633 48.899h44.403v35.918H27.633z"/>
            <path fill="#FF8A00" d="M45.651 55.313h8.366v29.504h-8.366z"/>
            <path fill="#000" d="M27.633 46.974h44.403v8.98H27.633z" opacity=".1"/>
            <path fill="#E5450D" d="M25.058 46.333h49.551v8.98H25.058z"/>
            <path fill="#FF8A00" d="M45.651 46.333h8.366v8.98h-8.366z"/>
            <g transform="translate(18 66)">
                <circle cx="9.623" cy="9.633" r="9" fill="#F84B0F"/>
                <circle cx="11.623" cy="11.633" r="9" fill="#FF8A00"/>
            </g>
            <g transform="translate(57 74)">
                <circle cx="5.041" cy="5.046" r="4.714" fill="#F84B0F"/>
                <circle cx="6.088" cy="6.094" r="4.714" fill="#FF8A00"/>
            </g>
            <g transform="translate(27 69)">
                <ellipse cx="8.053" cy="9" fill="#F84B0F" rx="8.053" ry="9"/>
                <ellipse cx="9.947" cy="9.5" fill="#FF8A00" rx="8.053" ry="8.5"/>
            </g>
            <g transform="translate(63 76)">
                <ellipse cx="4" cy="4.5" fill="#F84B0F" rx="4" ry="4.5"/>
                <ellipse cx="5" cy="4.5" fill="#FF8A00" rx="4" ry="4.5"/>
            </g>
        </g>
        <g font-family="Lato-Heavy, Lato" font-size="21" font-weight="600">
            <text fill="#FF8A00" transform="translate(44 -5)">
                <tspan x="0" y="21">₹500</tspan>
            </text>
            <text fill="#F84B0F" transform="translate(44 -5)">
                <tspan x="1" y="22">₹500</tspan>
            </text>
        </g>
        <text fill="#F84B0F" font-family="Lato-Heavy, Lato" font-size="15" font-weight="600" transform="translate(0 -5)">
            <tspan x="29" y="39">CASHBACK</tspan>
        </text>
    </g>
</svg>
