<svg xmlns="http://www.w3.org/2000/svg" xmlns:xlink="http://www.w3.org/1999/xlink" width="1440" height="503" viewBox="0 0 1440 503">
    <defs>
        <linearGradient id="b" x1="50%" x2="50%" y1="100%" y2="0%">
            <stop offset="0%" stop-color="#FFF" stop-opacity=".38"/>
            <stop offset="41.123%" stop-opacity=".236"/>
            <stop offset="100%" stop-opacity=".58"/>
        </linearGradient>
        <path id="a" d="M0 19h1440v503H0z"/>
        <path id="c" d="M0 0h1440v503H0z"/>
    </defs>
    <g fill="none" fill-rule="evenodd">
        <g fill-rule="nonzero" transform="translate(0 -19)">
            <use fill="#3996FF" xlink:href="#a"/>
            <use fill="url(#b)" xlink:href="#a"/>
        </g>
        <g opacity=".12">
            <g>
                <mask id="d" fill="#fff">
                    <use xlink:href="#c"/>
                </mask>
                <circle cx="293" cy="121" r="41" stroke="#FFF" mask="url(#d)"/>
                <circle cx="185" cy="157" r="12" stroke="#FFF" mask="url(#d)"/>
                <circle cx="152" cy="413" r="12" stroke="#FFF" mask="url(#d)"/>
                <circle cx="92.5" cy="490.5" r="22.5" stroke="#FFF" mask="url(#d)"/>
                <circle cx="135.5" cy="64.5" r="5.5" stroke="#FFF" mask="url(#d)"/>
                <circle cx="247.5" cy="261.5" r="5.5" stroke="#FFF" mask="url(#d)"/>
                <circle cx="58.5" cy="16.5" r="35.5" stroke="#FFF" mask="url(#d)"/>
                <circle cx="284.5" cy="415.5" r="35.5" stroke="#FFF" mask="url(#d)"/>
                <circle cx="20.5" cy="364.5" r="19.5" stroke="#FFF" mask="url(#d)"/>
                <circle cx="141.5" cy="342.5" r="6.5" stroke="#FFF" mask="url(#d)"/>
                <circle cx="71" cy="193" r="12" stroke="#FFF" mask="url(#d)"/>
                <circle cx="1401" cy="121" r="41" stroke="#FFF" mask="url(#d)"/>
                <circle cx="1293" cy="157" r="12" stroke="#FFF" mask="url(#d)"/>
                <circle cx="1260" cy="413" r="12" stroke="#FFF" mask="url(#d)"/>
                <circle cx="1200.5" cy="490.5" r="22.5" stroke="#FFF" mask="url(#d)"/>
                <circle cx="1243.5" cy="64.5" r="5.5" stroke="#FFF" mask="url(#d)"/>
                <circle cx="1355.5" cy="261.5" r="5.5" stroke="#FFF" mask="url(#d)"/>
                <circle cx="1166.5" cy="16.5" r="35.5" stroke="#FFF" mask="url(#d)"/>
                <circle cx="1392.5" cy="415.5" r="35.5" stroke="#FFF" mask="url(#d)"/>
                <circle cx="1128.5" cy="364.5" r="19.5" stroke="#FFF" mask="url(#d)"/>
                <circle cx="1249.5" cy="342.5" r="6.5" stroke="#FFF" mask="url(#d)"/>
                <circle cx="1179" cy="193" r="12" stroke="#FFF" mask="url(#d)"/>
            </g>
        </g>
    </g>
</svg>
