<svg xmlns="http://www.w3.org/2000/svg" width="18" height="18" viewBox="0 0 18 18">
    <path fill="#F84B0F" fill-rule="nonzero" d="M9 0a9 9 0 1 0 9 9 9.01 9.01 0 0 0-9-9zm3.636 1.878a8.052 8.052 0 0 1 3.486 3.486l-1.958.588a6.044 6.044 0 0 0-2.114-2.116l.586-1.958zm-7.274 0l.588 1.958A6.044 6.044 0 0 0 3.836 5.95l-1.958-.588a8.052 8.052 0 0 1 3.486-3.484h-.002zm0 14.244a8.052 8.052 0 0 1-3.484-3.486l1.958-.588a6.044 6.044 0 0 0 2.114 2.116l-.588 1.958zM4 9a5 5 0 1 1 10 0A5 5 0 0 1 4 9zm8.636 7.122l-.588-1.958a6.044 6.044 0 0 0 2.116-2.114l1.958.588a8.052 8.052 0 0 1-3.486 3.484z"/>
</svg>
